<?xml version="1.0" encoding="UTF-8" standalone="no"?>
<!-- Created with Inkscape (http://www.inkscape.org/) -->

<svg
   xmlns:dc="http://purl.org/dc/elements/1.1/"
   xmlns:cc="http://creativecommons.org/ns#"
   xmlns:rdf="http://www.w3.org/1999/02/22-rdf-syntax-ns#"
   xmlns:svg="http://www.w3.org/2000/svg"
   xmlns="http://www.w3.org/2000/svg"
   xmlns:sodipodi="http://sodipodi.sourceforge.net/DTD/sodipodi-0.dtd"
   xmlns:inkscape="http://www.inkscape.org/namespaces/inkscape"
   width="744.09448819"
   height="1052.3622047"
   id="svg2"
   version="1.1"
   inkscape:version="0.48.3.1 r9886"
   sodipodi:docname="New document 1">
  <defs
     id="defs4" />
  <sodipodi:namedview
     id="base"
     pagecolor="#ffffff"
     bordercolor="#666666"
     borderopacity="1.0"
     inkscape:pageopacity="0.0"
     inkscape:pageshadow="2"
     inkscape:zoom="3.4074166"
     inkscape:cx="320.4725"
     inkscape:cy="520.4725"
     inkscape:document-units="px"
     inkscape:current-layer="layer1"
     showgrid="false"
     inkscape:window-width="1215"
     inkscape:window-height="1000"
     inkscape:window-x="65"
     inkscape:window-y="24"
     inkscape:window-maximized="1" />
  <metadata
     id="metadata7">
    <rdf:RDF>
      <cc:Work
         rdf:about="">
        <dc:format>image/svg+xml</dc:format>
        <dc:type
           rdf:resource="http://purl.org/dc/dcmitype/StillImage" />
        <dc:title></dc:title>
      </cc:Work>
    </rdf:RDF>
  </metadata>
  <g
     inkscape:label="Layer 1"
     inkscape:groupmode="layer"
     id="layer1">
    <g
       id="g3190">
      <path
         inkscape:connector-curvature="0"
         d="m 391.46154,478.21943 c -5.5975,-6.07875 -17.75375,-11.03625 -33.5875,-14.075 0,-1.76 1.11875,-2.56 3.19875,-3.83875 0.96,-0.8 2.07875,-1.6 3.35875,-2.72 4.9575,-4.7975 -0.96,-12.155 -1.28,-12.475 l -3.19875,-3.99875 0.8,5.1175 c 0.48,3.52 -0.8,4.79875 -4.63875,7.35875 -0.48,0.48 -0.8,0.8 -1.28,1.11875 0.16,-2.23875 0.32,-4.9575 -0.48,-8.15625 -0.79875,-3.36 -2.39875,-4.63875 -2.39875,-4.63875 l -0.32,4.7975 c -0.16,0 -0.48,3.68 -5.4375,8.1575 0.48,-0.47875 0.96,-0.95875 1.27875,-1.43875 2.4,-3.52 1.76,-7.51875 0.8,-12.15625 l -0.15875,-0.96 c -0.8,-4.79875 0.47875,-7.8375 1.27875,-8.3175 0.96,-0.95875 2.55875,-2.71875 2.55875,-2.71875 0,0 -0.95875,-0.32 -3.35875,0 -3.03875,0.48 -8.1575,2.23875 -7.9975,6.3975 0,1.92 0.64,3.67875 1.12,5.27875 0.64,1.6 1.11875,3.19875 0.64,3.99875 -0.32,0.64 -1.44,1.12 -3.35875,1.44 -7.1975,1.27875 -12.79625,4.7975 -15.515,9.59625 -0.95987,1.59875 -1.599,3.19875 -1.91937,5.1175 -17.91363,0 -35.02788,2.24 -48.14351,6.39875 -14.71487,4.47875 -22.87212,10.71625 -23.51175,17.91375 -0.48,3.83875 1.27975,9.27625 10.8765,14.555 l -0.16025,0 2.71875,1.28 0,0 1.44,0.79875 0,0 c 4.31838,1.92 9.43651,3.51875 15.19475,4.95875 -2.079,1.11875 -3.83887,2.39875 -5.59812,3.99875 -9.11712,7.5175 -14.395,18.71338 -14.395,30.709 0,10.55663 3.9985,20.47313 11.51613,27.99025 7.51762,7.5175 17.59375,11.67625 28.14987,11.67625 18.71387,0 35.02825,-13.27537 38.867,-31.669 3.19875,-9.59662 2.87875,-19.833 2.71875,-23.8315 -0.32,-8.7975 3.99875,-13.59625 6.7175,-15.835 12.63625,-1.6 23.6725,-4.31875 31.98875,-7.9975 l 0,0 1.28,-0.64 0,0 2.87875,-1.43875 0,0 c 6.5575,-3.67875 10.3975,-8.1575 10.71625,-12.79625 0.32,-3.03875 -0.79875,-6.0775 -3.35875,-8.95625 z m -12.955,7.8375 c 1.12,1.11875 1.12,1.91875 1.12,2.23875 -0.16,1.44 -1.92,3.19875 -4.95875,4.79875 l 0,0 c -6.3975,3.19875 -17.27375,5.7575 -30.07,7.0375 0.48,-0.32 1.12,-0.64 1.76,-0.96 l 0.32,0 c 3.67875,-1.59875 7.83625,-3.19875 7.9975,-9.43625 0.15875,-0.96 0.15875,-3.83875 0.63875,-4.95875 0.8,-1.44 2.56,-3.51875 3.99875,-4.15875 0.16,0 -2.55875,-0.48 -2.55875,-0.48 -0.16,0 -0.32,0 -0.32,0 0.8,-0.64 1.44,-1.44 1.92,-2.23875 10.395,2.23875 17.59375,5.1175 20.1525,8.1575 z m -113.40113,1.43875 c 0.48,-5.1175 18.71388,-11.67625 48.30376,-12.795 -2.71926,2.07875 -6.07863,5.5975 -6.87788,11.35625 l -0.31988,2.23875 c -0.16012,1.44 -0.31987,2.71875 -0.96,4.15875 -1.11962,2.87875 -4.31837,5.4375 -7.67725,7.1975 -11.83587,-1.44 -21.9125,-3.99875 -27.67037,-7.0375 l 0,0 c -3.19875,-1.76 -4.9585,-3.67875 -4.79838,-5.11875"
         style="fill:#1b1d1e;fill-opacity:1;fill-rule:evenodd;stroke:none"
         id="path3069" />
      <path
         inkscape:connector-curvature="0"
         d="m 356.43404,463.98443 c 0.32,-3.51875 3.67875,-4.31875 6.8775,-7.3575 4.31875,-3.99875 -1.11875,-10.55625 -1.11875,-10.55625 0.63875,4.4775 -1.44,6.0775 -5.27875,8.79625 -1.12,0.8 -2.08,1.92 -2.08,3.35875 -0.15875,1.76 -0.32,3.51875 -0.63875,5.27875 0.79875,0.16 1.59875,0.32 2.23875,0.48"
         style="fill:#f78d1e;fill-opacity:1;fill-rule:evenodd;stroke:none"
         id="path3071" />
      <path
         inkscape:connector-curvature="0"
         d="m 344.91779,457.74568 c -0.95875,0.8 -1.91875,1.6 -2.71875,2.24 -0.64,0.63875 -1.28,1.27875 -1.91875,1.91875 3.67875,0.32 7.3575,0.64 10.71625,1.12 2.23875,-3.99875 3.3575,-8.4775 1.91875,-16.315 0,0 -0.32,5.27875 -7.9975,11.03625"
         style="fill:#f78d1e;fill-opacity:1;fill-rule:evenodd;stroke:none"
         id="path3073" />
      <path
         inkscape:connector-curvature="0"
         d="m 324.44479,461.10443 c 4.15925,0 8.318,0.16 12.3155,0.48 0.16,-0.16 0.32,-0.32 0.48,-0.48 2.56,-2.87875 6.87875,-5.2775 8.9575,-8.47625 2.23875,-3.35875 1.44,-7.3575 0.64,-12.15625 -1.44,-8.31625 2.07875,-9.75625 2.07875,-9.75625 0,0 -7.0375,0.96 -6.8775,4.9575 0.16,5.43875 5.7575,10.55625 -2.71875,12.15625 -9.2775,1.6 -15.03513,6.7175 -16.31438,13.275 0.47938,0 0.95938,0 1.43888,0"
         style="fill:#f78d1e;fill-opacity:1;fill-rule:evenodd;stroke:none"
         id="path3075" />
      <path
         inkscape:connector-curvature="0"
         d="m 261.42679,544.43643 c 1.11962,5.27825 3.9985,11.51613 9.9165,15.67425 1.91937,1.28025 3.83887,2.23975 5.918,3.03962 -1.27937,-2.07962 -2.71925,-4.31887 -4.31838,-6.55762 -2.8795,-4.15925 -5.75837,-8.63725 -7.67774,-13.27587 -1.91951,-4.79838 -2.399,-9.75638 -1.59913,-14.875 l 0,0 c -1.44,4.15862 -2.3995,8.477 -2.3995,13.27537 0,0.79975 0.16025,1.75975 0.16025,2.71925"
         style="fill:#c52c38;fill-opacity:1;fill-rule:evenodd;stroke:none"
         id="path3095" />
      <path
         inkscape:connector-curvature="0"
         d="m 267.82416,542.3573 c 1.75988,4.31838 4.63875,8.63675 7.358,12.63576 2.23926,3.19875 4.31838,6.23775 5.75775,9.27687 1.75975,0.4795 3.67875,0.79925 5.43801,0.79925 -1.91888,-2.71875 -3.5185,-5.75775 -4.95801,-9.27637 -5.43799,-13.75588 -4.63862,-30.70963 2.07913,-40.46588 3.519,-5.11875 7.83737,-8.4775 13.27537,-11.51625 4.63863,-2.55875 7.51763,-3.2 10.55613,-4.95875 3.19925,-2.07875 4.9585,-5.2775 2.87938,-12.475 -0.63963,-2.08 -0.79976,-3.84 -0.63963,-5.11875 -0.79975,1.44 -1.27975,3.19875 -1.59963,5.11875 l 0,0 c -0.31975,1.91875 -0.48,4.1575 -1.27925,6.5575 -2.87887,7.5175 -16.7945,11.675 -18.55425,12.15625 -5.27774,1.59875 -9.43649,3.9975 -12.79537,6.8775 -9.4365,8.47625 -11.19625,21.11225 -7.51763,30.38912"
         style="fill:#c52c38;fill-opacity:1;fill-rule:evenodd;stroke:none"
         id="path3097" />
      <path
         inkscape:connector-curvature="0"
         d="m 325.56404,474.54068 c 0.16,0.48 0.32125,0.95875 0.32125,1.43875 0.47875,2.56 -0.32125,4.79875 -3.51963,5.27875 -3.35887,0.48 -4.4785,-2.4 -4.79825,-4.63875 0,-0.96 0.15963,-1.59875 0.15963,-2.07875 -0.4795,0 -1.11913,0.16 -1.59912,0.16 -1.11963,0.48 -2.55913,1.43875 -3.83888,2.87875 -0.63963,1.44 -1.43937,3.35875 -0.15963,7.9975 2.07913,7.9975 1.11963,12.955 -5.27837,15.675 -8.31738,3.67875 -13.59512,5.7575 -20.793,14.71375 -3.35838,4.15875 -5.27775,11.19625 -5.43788,18.394 -0.31987,6.878 1.11963,14.23488 3.5185,20.3135 1.59963,3.99863 3.519,7.51713 5.75826,10.55625 2.23937,-0.16025 4.47862,-0.48 6.71787,-0.9595 -2.55912,-2.879 -3.99862,-6.398 -4.15875,-10.3965 -0.79975,-13.11575 6.23775,-18.55375 17.11425,-27.3515 l 4.79838,-4.1575 c 19.51287,-16.475 13.75537,-33.26875 15.99412,-47.66375 -1.59875,0 -3.19875,0 -4.79875,-0.16"
         style="fill:#c52c38;fill-opacity:1;fill-rule:evenodd;stroke:none"
         id="path3099" />
      <path
         inkscape:connector-curvature="0"
         d="m 333.40154,474.86068 c -0.63875,2.87875 -0.79875,5.9175 -0.95875,8.95625 -0.8,12.47625 -0.48,26.71125 -16.31488,40.78625 l -4.79837,3.83863 c -10.55663,8.477 -16.63425,13.75537 -16.15425,25.27149 0.15963,3.83888 1.75925,7.19726 4.478,9.75675 2.87887,-0.79975 5.75837,-2.07912 8.63725,-3.67862 13.75537,-7.8375 22.39225,-19.51325 25.751,-34.54825 2.08,-9.4375 2.08,-17.115 1.92,-23.3525 0,-3.03875 0.47875,-9.27625 0.47875,-9.27625 0.48,-3.83875 1.12,-9.2775 5.59875,-16.315 0.16,-0.32 0.16,-0.48 0.32,-0.8 -2.72,-0.15875 -5.7575,-0.47875 -8.9575,-0.63875"
         style="fill:#c52c38;fill-opacity:1;fill-rule:evenodd;stroke:none"
         id="path3101" />
      <path
         inkscape:connector-curvature="0"
         d="m 338.04029,515.00568 0,0 0,0 c -0.48,2.4 -0.48,4.79875 -0.8,7.35875 -0.16,0.95875 -0.32,1.91875 -0.32,2.71875 -0.16,0.32 -0.16,0.63875 -0.16,0.8 -3.51875,15.834 -12.47513,27.99025 -27.03025,36.30713 -2.3995,1.4395 -4.95812,2.55912 -7.51713,3.35887 4.31838,2.87887 9.27688,3.67875 12.63525,3.19875 12.95588,-1.9195 19.35338,-10.396 22.39213,-19.51325 3.04,-9.27675 2.71875,-19.19325 2.56,-23.1915 -0.48,-13.75625 10.07625,-18.87375 10.07625,-18.87375 -8.1575,-0.48 -10.87625,3.19875 -11.83625,7.83625"
         style="fill:#c52c38;fill-opacity:1;fill-rule:evenodd;stroke:none"
         id="path3103" />
      <path
         inkscape:connector-curvature="0"
         d="m 329.40279,565.7088 c -5.27775,4.47913 -11.03563,5.43851 -13.59475,5.75838 -5.11813,0.79975 -11.19625,-0.31987 -16.63425,-4.63875 l -0.15963,-0.15962 c -2.39937,0.63962 -4.63862,0.9595 -6.87787,1.11962 5.27825,5.75788 12.15575,8.79688 21.4325,9.4365 l 0,0 0,0 c 6.398,-2.39888 11.8365,-6.55762 15.99525,-11.67575 l -0.16125,0.15962"
         style="fill:#c52c38;fill-opacity:1;fill-rule:evenodd;stroke:none"
         id="path3105" />
      <path
         inkscape:connector-curvature="0"
         d="m 281.10004,575.14593 c 0,-2.879 -0.79975,-5.75788 -2.079,-8.63725 -3.19925,-0.79988 -6.23838,-2.23875 -9.27738,-3.9985 -1.75924,-1.11925 -3.19875,-2.71875 -4.47849,-4.15825 l 0,0 c 3.35887,7.19725 8.957,12.95512 15.83487,16.794 l 0,0"
         style="fill:#c52c38;fill-opacity:1;fill-rule:evenodd;stroke:none"
         id="path3107" />
      <path
         inkscape:connector-curvature="0"
         d="m 307.49066,579.14443 c -5.11812,-1.27938 -9.59662,-3.03912 -13.435,-6.07762 -1.91937,-1.44 -3.83887,-3.19875 -5.438,-5.11863 -2.07962,0 -4.15862,-0.15975 -6.23825,-0.63975 1.11963,3.03913 1.75925,6.07813 1.27976,9.11675 l 0,0 c 4.95849,2.23975 10.23637,3.519 15.99412,3.519 2.71925,0 5.4385,-0.31975 7.99762,-0.79975 0,0 0,0 -0.16025,0"
         style="fill:#c52c38;fill-opacity:1;fill-rule:evenodd;stroke:none"
         id="path3109" />
      <path
         inkscape:connector-curvature="0"
         d="m 352.11529,485.09693 c -0.96,2.87875 -3.83875,2.55875 -4.7975,0.96 -1.28,-2.56 -0.8,-4.47875 0.63875,-5.91875 1.44,-1.28 3.67875,-2.07875 5.91875,-3.03875 l 0,0 c -2.56,-0.48 -5.27875,-0.8 -8.1575,-1.12 -0.16,0 -0.16,0 -0.16,0 -0.32,0.32 -0.48,0.64 -0.8,0.96 -4.63875,6.8775 -5.11875,12.15625 -5.5975,15.995 l -0.16,1.27875 c -0.32,2.08 -0.32,4.63875 -0.16,7.6775 0,0.48 0,0.96 0,1.28 -0.16,1.12 -0.16,2.07875 -0.16,3.19875 l 0,0 c 0,-0.48 0.16,-0.64 0.16,-0.32 1.27875,-4.15875 3.67875,-6.7175 7.0375,-8.1575 3.67875,-1.43875 7.1975,-2.87875 7.3575,-8.15625 0.16,-2.24 0.32,-4.47875 0.8,-5.59875 0.95875,-2.07875 2.55875,-2.55875 2.55875,-2.55875 -1.76,-0.16 -3.67875,0.64 -4.47875,3.51875"
         style="fill:#c52c38;fill-opacity:1;fill-rule:evenodd;stroke:none"
         id="path3111" />
      <path
         inkscape:connector-curvature="0"
         d="m 324.44479,463.18443 c -38.86613,-0.32 -71.33488,9.75625 -72.4545,22.3925 -0.48,5.1175 4.15812,9.91625 12.31537,13.755 4.9585,2.39875 11.356,4.47875 18.71388,6.0775 1.59912,-0.64 3.0385,-1.11875 4.63812,-1.59875 1.27938,-0.48 3.67875,-1.28 6.398,-2.4 -10.8765,-1.59875 -19.67337,-3.99875 -25.11187,-6.8775 -3.9985,-2.23875 -6.23725,-4.63875 -5.91788,-7.1975 0.64013,-8.6375 27.8305,-15.195 60.61913,-14.875 32.789,0.32 58.86025,7.51875 58.06025,15.995 -0.16,2.39875 -2.39875,4.63875 -6.0775,6.5575 -6.87875,3.51875 -18.87375,6.3975 -33.58875,7.6775 -0.48,0.64 -0.96,1.44 -1.44,2.24 6.71875,-2.56 14.395,1.27875 14.395,1.27875 0,0 0.64,0.16 0.96,0.48 9.7575,-1.75875 18.07375,-4.31875 24.31125,-7.1975 7.5175,-3.67875 11.99625,-7.8375 12.47625,-12.47625 1.12,-12.795 -29.59,-23.35125 -68.29675,-23.83125"
         style="fill:#ffffff;fill-opacity:1;fill-rule:evenodd;stroke:none"
         id="path3113" />
    </g>
  </g>
</svg>
