<?xml version="1.0" encoding="UTF-8" standalone="no"?>
<!-- Created with Inkscape (http://www.inkscape.org/) -->

<svg
   xmlns:dc="http://purl.org/dc/elements/1.1/"
   xmlns:cc="http://creativecommons.org/ns#"
   xmlns:rdf="http://www.w3.org/1999/02/22-rdf-syntax-ns#"
   xmlns:svg="http://www.w3.org/2000/svg"
   xmlns="http://www.w3.org/2000/svg"
   xmlns:xlink="http://www.w3.org/1999/xlink"
   xmlns:sodipodi="http://sodipodi.sourceforge.net/DTD/sodipodi-0.dtd"
   xmlns:inkscape="http://www.inkscape.org/namespaces/inkscape"
   width="744.09448819"
   height="1052.3622047"
   id="svg2"
   version="1.1"
   inkscape:version="0.48.3.1 r9886"
   sodipodi:docname="scheat-logo.svg">
  <defs
     id="defs4" />
  <sodipodi:namedview
     id="base"
     pagecolor="#ffffff"
     bordercolor="#666666"
     borderopacity="1.0"
     inkscape:pageopacity="0.0"
     inkscape:pageshadow="2"
     inkscape:zoom="1.4009346"
     inkscape:cx="285.79962"
     inkscape:cy="524.49777"
     inkscape:document-units="px"
     inkscape:current-layer="layer1"
     showgrid="false"
     inkscape:window-width="1024"
     inkscape:window-height="550"
     inkscape:window-x="0"
     inkscape:window-y="0"
     inkscape:window-maximized="1" />
  <metadata
     id="metadata7">
    <rdf:RDF>
      <cc:Work
         rdf:about="">
        <dc:format>image/svg+xml</dc:format>
        <dc:type
           rdf:resource="http://purl.org/dc/dcmitype/StillImage" />
        <dc:title />
      </cc:Work>
    </rdf:RDF>
  </metadata>
  <g
     inkscape:label="Layer 1"
     inkscape:groupmode="layer"
     id="layer1">
    <image
       y="445.18109"
       x="265.54724"
       id="image3057"
       xlink:href="file:///home/tortxof/scheat-www/assets/scheat-logo-original.png"
       height="162"
       width="213"
       sodipodi:insensitive="true" />
    <path
       style="fill:none;stroke:#000000;stroke-width:1px;stroke-linecap:butt;stroke-linejoin:miter;stroke-opacity:1"
       d="m 303.72689,447.93683 60.56872,0.37855 c 0,0 1.80267,6.49078 4.16411,3.02844 1.56581,-2.2958 7.92924,-2.36919 9.33767,10.22097 l 47.19313,-0.50474 c 0,0 45.50198,47.55374 49.71683,50.7263 -3.28081,2.12043 -18.5455,9.96936 -20.56814,18.80155 -1.29435,5.65202 -3.57178,4.89571 -4.16409,6.62469 -0.38532,1.12479 4.00473,1.9317 1.13567,5.74142 -1.1208,1.48827 -3.59823,-2.89537 -5.04741,-1.57731 -1.94879,1.77245 1.30706,3.02945 1.38804,4.73193 0.0894,1.87893 -0.23209,5.02225 -2.08205,5.36285 -2.56277,0.47185 -4.45969,4.91139 -6.81398,3.47009 -2.59117,-1.58632 -5.49203,-1.49714 -5.17358,2.71297 0.10904,1.44152 0.71574,3.42113 -2.76224,3.71756 -2.92366,0.24918 -5.17565,5.60628 -8.27893,5.36775 -4.14585,-0.31868 -5.70349,2.65635 -1.95586,4.9843 0.8839,0.54905 1.8827,2.19981 -1.26185,3.53317 -2.40516,1.01985 -5.82136,2.92899 -9.33768,3.65937 -2.57844,0.53557 -3.78155,1.52178 -5.74141,3.2808 -3.3985,3.05021 -5.28336,2.13821 -6.94016,0.69402 -3.75357,-3.27188 -12.24168,1.35724 -4.47957,3.3439 3.32883,0.85199 0.89151,9.30332 -3.09152,8.39128 -6.915,-1.58339 1.75543,-5.94831 -4.47957,-4.03791 -3.49102,1.06965 -2.75478,-4.55529 -5.8045,-1.7035 -2.70566,2.53006 2.76648,6.84368 1.07257,8.01274 -2.36579,1.63278 -3.29759,3.32752 -3.91173,5.99378 -0.80891,3.51179 -7.91538,1.49781 -7.82346,-2.90224 0.12932,-6.18978 -0.8472,-6.49337 -3.72245,-6.94017 -4.76671,-0.74073 -3.23058,-4.06868 -3.59627,-6.81398 -0.61064,-4.58437 -1.39015,-4.74926 -3.3439,-5.61523 -2.45765,-1.08932 -2.8871,-3.40996 -1.26185,-4.9843 2.35688,-2.28305 -0.008,-4.47004 -1.26185,-4.9212 -2.86187,-1.02944 -2.34369,-2.85749 -2.33441,-5.42596 0.0264,-7.31311 -3.72482,-6.76578 -6.56162,-6.81398 -8.68855,-0.14763 -8.39284,-4.0504 -9.84241,-8.07583 -0.96352,-2.67567 -2.23869,-6.57286 -2.77191,-7.2382 -0.57303,-0.715 -0.72617,-7.24574 -2.33858,-7.39924 -5.95971,-0.56735 -11.25381,-4.54164 -13.30724,-7.13501 -1.88243,-2.3774 -6.15874,-6.57832 -8.51967,-7.62354 -4.60036,-2.03663 -7.32983,-8.58133 -9.19476,-13.3717 -1.01872,-2.61674 -2.14119,-6.50517 -4.21898,-8.01931 -2.61268,-1.90393 -3.50606,-3.69743 -3.38273,-6.41168 0.18028,-3.96747 -2.67007,-6.9488 -7.02568,-8.01722 -2.9823,-0.73155 -7.62463,-3.73098 -10.2553,-7.54048 -0.94884,-1.37402 -1.73913,-2.98251 -3.33942,-3.45926 -8.57314,-2.55404 -3.25564,-8.48926 -1.85582,-9.94694 3.84788,-4.00692 10.05671,-6.5344 15.1142,-8.83294 6.89694,-3.13454 18.21681,-7.46656 18.16164,-7.46656 z"
       id="path3060"
       inkscape:connector-curvature="0"
       sodipodi:nodetypes="ccscccssssssssssssssssssssssssssssssssssssssssssc" />
    <path
       sodipodi:type="star"
       style="fill:none;stroke:#000000;stroke-width:1px;stroke-linecap:butt;stroke-linejoin:miter;stroke-opacity:1"
       id="path3047"
       sodipodi:sides="5"
       sodipodi:cx="320.00473"
       sodipodi:cy="466.86456"
       sodipodi:r1="6.8651972"
       sodipodi:r2="2.6774268"
       sodipodi:arg1="0.94200001"
       sodipodi:arg2="1.5703186"
       inkscape:flatsided="false"
       inkscape:rounded="0"
       inkscape:randomized="0"
       d="m 324.04265,472.4167 -4.03664,-2.87471 -4.03389,2.87856 1.48662,-4.7274 -3.98421,-2.94693 4.95541,-0.047 1.57151,-4.69986 1.576,4.69836 4.95546,0.0423 -3.9814,2.95074 z"
       inkscape:transform-center-x="-0.25671851"
       inkscape:transform-center-y="-0.65602352"
       transform="matrix(1.0718062,0,0,1.0718062,-21.464029,-38.042291)" />
  </g>
</svg>
