<?xml version="1.0" encoding="UTF-8" standalone="no"?>
<!-- Created with Inkscape (http://www.inkscape.org/) -->

<svg
   xmlns:dc="http://purl.org/dc/elements/1.1/"
   xmlns:cc="http://creativecommons.org/ns#"
   xmlns:rdf="http://www.w3.org/1999/02/22-rdf-syntax-ns#"
   xmlns:svg="http://www.w3.org/2000/svg"
   xmlns="http://www.w3.org/2000/svg"
   xmlns:xlink="http://www.w3.org/1999/xlink"
   xmlns:sodipodi="http://sodipodi.sourceforge.net/DTD/sodipodi-0.dtd"
   xmlns:inkscape="http://www.inkscape.org/namespaces/inkscape"
   width="744.09448819"
   height="1052.3622047"
   id="svg2"
   version="1.1"
   inkscape:version="0.48.3.1 r9886"
   sodipodi:docname="scheat-logo.svg">
  <defs
     id="defs4" />
  <sodipodi:namedview
     id="base"
     pagecolor="#ffffff"
     bordercolor="#666666"
     borderopacity="1.0"
     inkscape:pageopacity="0.0"
     inkscape:pageshadow="2"
     inkscape:zoom="11.207477"
     inkscape:cx="387.867"
     inkscape:cy="524.30347"
     inkscape:document-units="px"
     inkscape:current-layer="layer1"
     showgrid="false"
     inkscape:window-width="1215"
     inkscape:window-height="1000"
     inkscape:window-x="65"
     inkscape:window-y="24"
     inkscape:window-maximized="1" />
  <metadata
     id="metadata7">
    <rdf:RDF>
      <cc:Work
         rdf:about="">
        <dc:format>image/svg+xml</dc:format>
        <dc:type
           rdf:resource="http://purl.org/dc/dcmitype/StillImage" />
        <dc:title />
      </cc:Work>
    </rdf:RDF>
  </metadata>
  <g
     inkscape:label="Layer 1"
     inkscape:groupmode="layer"
     id="layer1">
    <image
       y="445.18109"
       x="265.54724"
       id="image3057"
       xlink:href="file:///home/tortxof/scheat-www/assets/scheat-logo-original.png"
       height="162"
       width="213"
       sodipodi:insensitive="true" />
    <path
       style="fill:none;stroke:#000000;stroke-width:1px;stroke-linecap:butt;stroke-linejoin:miter;stroke-opacity:1"
       d="m 303.72689,447.93683 60.56872,0.37855 c 0,0 1.80267,6.49078 4.16411,3.02844 1.56581,-2.2958 7.92924,-2.36919 9.33767,10.22097 l 47.19313,-0.50474 c 0,0 45.50198,47.55374 49.71683,50.7263 -3.28081,2.12043 -18.5455,9.96936 -20.56814,18.80155 -1.29435,5.65202 -3.57178,4.89571 -4.16409,6.62469 -0.38532,1.12479 4.00473,1.9317 1.13567,5.74142 -1.1208,1.48827 -3.59823,-2.89537 -5.04741,-1.57731 -1.94879,1.77245 1.30706,3.02945 1.38804,4.73193 0.0894,1.87893 -0.23209,5.02225 -2.08205,5.36285 -2.56277,0.47185 -4.45969,4.91139 -6.81398,3.47009 -2.59117,-1.58632 -5.49203,-1.49714 -5.17358,2.71297 0.10904,1.44152 0.71574,3.42113 -2.76224,3.71756 -2.92366,0.24918 -5.17565,5.60628 -8.27893,5.36775 -4.14585,-0.31868 -5.70349,2.65635 -1.95586,4.9843 0.8839,0.54905 1.8827,2.19981 -1.26185,3.53317 -2.40516,1.01985 -5.82136,2.92899 -9.33768,3.65937 -2.57844,0.53557 -3.78155,1.52178 -5.74141,3.2808 -3.3985,3.05021 -5.28336,2.13821 -6.94016,0.69402 -3.75357,-3.27188 -12.24168,1.35724 -4.47957,3.3439 3.32883,0.85199 0.89151,9.30332 -3.09152,8.39128 -6.915,-1.58339 1.75543,-5.94831 -4.47957,-4.03791 -3.49102,1.06965 -2.75478,-4.55529 -5.8045,-1.7035 -2.70566,2.53006 2.76648,6.84368 1.07257,8.01274 -2.36579,1.63278 -3.29759,3.32752 -3.91173,5.99378 -0.80891,3.51179 -7.91538,1.49781 -7.82346,-2.90224 0.12932,-6.18978 -0.8472,-6.49337 -3.72245,-6.94017 -4.76671,-0.74073 -3.23058,-4.06868 -3.59627,-6.81398 -0.61064,-4.58437 -1.39015,-4.74926 -3.3439,-5.61523 -2.45765,-1.08932 -2.8871,-3.40996 -1.26185,-4.9843 2.35688,-2.28305 -0.008,-4.47004 -1.26185,-4.9212 -2.86187,-1.02944 -2.34369,-2.85749 -2.33441,-5.42596 0.0264,-7.31311 -3.72482,-6.76578 -6.56162,-6.81398 -8.68855,-0.14763 -8.39284,-4.0504 -9.84241,-8.07583 -0.96352,-2.67567 -2.23869,-6.57286 -2.77191,-7.2382 -0.57303,-0.715 -0.72617,-7.24574 -2.33858,-7.39924 -5.95971,-0.56735 -11.25381,-4.54164 -13.30724,-7.13501 -1.88243,-2.3774 -6.15874,-6.57832 -8.51967,-7.62354 -4.60036,-2.03663 -7.32983,-8.58133 -9.19476,-13.3717 -1.01872,-2.61674 -2.14119,-6.50517 -4.21898,-8.01931 -2.61268,-1.90393 -3.50606,-3.69743 -3.38273,-6.41168 0.18028,-3.96747 -2.67007,-6.9488 -7.02568,-8.01722 -2.9823,-0.73155 -7.62463,-3.73098 -10.2553,-7.54048 -0.94884,-1.37402 -1.73913,-2.98251 -3.33942,-3.45926 -8.57314,-2.55404 -3.25564,-8.48926 -1.85582,-9.94694 3.84788,-4.00692 10.05671,-6.5344 15.1142,-8.83294 6.89694,-3.13454 18.21681,-7.46656 18.16164,-7.46656 z"
       id="path3060"
       inkscape:connector-curvature="0"
       sodipodi:nodetypes="ccscccssssssssssssssssssssssssssssssssssssssssssc" />
    <path
       sodipodi:type="star"
       style="fill:none;stroke:#000000;stroke-width:1px;stroke-linecap:butt;stroke-linejoin:miter;stroke-opacity:1"
       id="path3047"
       sodipodi:sides="5"
       sodipodi:cx="320.00473"
       sodipodi:cy="466.86456"
       sodipodi:r1="6.8651972"
       sodipodi:r2="2.6774268"
       sodipodi:arg1="0.94200001"
       sodipodi:arg2="1.5703186"
       inkscape:flatsided="false"
       inkscape:rounded="0"
       inkscape:randomized="0"
       d="m 324.04265,472.4167 -4.03664,-2.87471 -4.03389,2.87856 1.48662,-4.7274 -3.98421,-2.94693 4.95541,-0.047 1.57151,-4.69986 1.576,4.69836 4.95546,0.0423 -3.9814,2.95074 z"
       inkscape:transform-center-x="-0.25671851"
       inkscape:transform-center-y="-0.65602352"
       transform="matrix(1.0718062,0,0,1.0718062,-21.464029,-38.042291)" />
    <path
       style="fill:none;stroke:#000000;stroke-width:0.2;stroke-linecap:butt;stroke-linejoin:miter;stroke-miterlimit:4;stroke-opacity:1;stroke-dasharray:none"
       d="m 355.2734,496.13945 c 5.14014,-3.8334 5.66953,-4.4713 5.55344,-8.17588 -0.054,-1.72319 -0.0499,-8.11787 -1.46349,-9.74243 -1.59992,-1.83877 -2.95952,-0.21433 -3.26844,-1.08334 -0.42144,-1.18552 3.73257,-3.11292 6.66351,-4.51072 2.74402,-1.30865 7.50184,-3.85302 8.41928,-2.43447 0.43115,0.66663 -1.24805,1.51887 -1.86178,2.67257 -0.39612,0.74462 -0.15429,5.44789 0.85046,10.49341 1.86615,9.3712 -2.06435,11.26387 -4.69181,13.41812 -3.2557,2.66935 -8.73463,7.28827 -10.7162,9.50345 -5.7614,6.44059 -3.34616,13.84705 -1.548,14.60682 1.99759,0.84403 4.21655,-0.79781 4.67146,1.17393 0.34192,1.48198 -4.93646,3.25797 -7.82346,5.08938 -8.00405,5.0775 -11.56229,6.79119 -7.59274,2.30195 3.21163,-3.6321 -0.79994,-7.19941 -4.35337,-2.39751 -0.99616,1.34616 -3.53524,3.48575 -0.63093,-0.94638 1.26579,-1.93166 1.07716,-5.92223 -5.86759,-0.63093 -7.24041,5.51657 -6.80424,4.10477 -0.12619,-3.47008 1.39532,-1.58269 5.66265,-4.91525 7.04506,-6.29043 5.41406,-5.38574 4.53686,-9.06916 -6.48171,-1.13732 -3.26559,2.35077 -13.68723,7.85145 4.90404,-5.86496 6.48306,-4.78312 15.76036,-10.66741 18.31846,-12.57518 z"
       id="path3819"
       inkscape:connector-curvature="0"
       sodipodi:nodetypes="ssssssssssssssssssssss" />
    <path
       style="fill:none;stroke:#000000;stroke-width:0.2;stroke-linecap:butt;stroke-linejoin:miter;stroke-miterlimit:4;stroke-opacity:1;stroke-dasharray:none"
       d="m 363.91705,502.66951 c 0.30124,-0.65601 6.43079,-7.53759 7.47646,-6.90862 0.62674,0.377 1.29158,11.90444 2.23977,14.57435 0.39471,1.11141 3.05912,0.35948 2.90226,1.60886 -0.0954,0.75948 -13.25234,8.22759 -14.35353,8.2651 -0.98075,0.0334 -0.68612,-1.86395 -0.22082,-2.71297 0.27863,-0.50842 1.27104,-0.50612 1.70349,-2.17669 0.59926,-2.31496 -0.17814,-11.71249 0.25237,-12.65003 z"
       id="path3946"
       inkscape:connector-curvature="0"
       sodipodi:nodetypes="ssssssss" />
    <path
       style="fill:none;stroke:#000000;stroke-width:0.2;stroke-linecap:butt;stroke-linejoin:miter;stroke-miterlimit:4;stroke-opacity:1;stroke-dasharray:none"
       d="m 340.28781,501.82601 c 0.46824,0.39437 8.35944,-4.43419 8.68014,-5.30129 0.39013,-1.0548 -0.94153,-13.49776 -0.26226,-14.48619 0.80303,-1.16851 2.62653,-2.11795 1.95214,-2.94894 -0.57752,-0.71165 -8.33313,3.90522 -8.33313,3.90522 0,0 -8.14194,4.29575 -7.86272,5.21749 0.48966,1.6164 1.91642,0.17729 3.98811,1.57267 1.42591,0.96041 1.31753,11.60292 1.83772,12.04104 z"
       id="path3948"
       inkscape:connector-curvature="0"
       sodipodi:nodetypes="sssscsss" />
    <path
       style="fill:none;stroke:#000000;stroke-width:0.2;stroke-linecap:butt;stroke-linejoin:miter;stroke-miterlimit:4;stroke-opacity:1;stroke-dasharray:none"
       d="m 383.00325,493.80648 c 2.10581,-1.39523 9.20882,-7.67262 9.32413,-13.02701 0.0579,-2.68885 -1.24375,-6.49432 -3.92595,-6.69196 -4.78685,-0.35273 -9.95952,5.71424 -12.00092,10.52868 -2.29082,5.40271 -2.74178,12.78514 1.11533,17.0422 2.47965,2.73677 8.16044,3.16605 11.19788,0.89225 2.76881,-2.07271 6.11199,-8.03034 6.11199,-8.03034 l 5.88893,2.0522 8.29803,-4.99667 5.88893,0.35691 7.31654,-7.31655 5.71047,2.85524 7.94113,-4.37208 7.67345,-4.1044 -3.21214,6.33505 -12.31321,7.22732 -8.29803,10.08256 -4.28286,0.98148 1.6953,-5.08589 -3.65827,0.0892 -4.55054,5.53202 0.26768,-4.81821 -2.4091,5.71047 -4.46131,6.15661 -7.04887,5.26434 0.26768,-3.47982 2.58756,-4.37208 -3.39059,2.23065 -7.67345,3.65827 -5.53202,4.46131 -6.58295,1.15546 c -5.55497,3.24458 -7.8674,9.36243 -8.37009,17.08858 l 0.77056,0.0157 c 0.71516,-5.80399 2.96417,-8.47268 6.74609,-9.47962 -3.1961,2.54801 -4.08575,5.5611 -4.51992,9.43277 7.06811,-0.0757 12.39053,2.30059 16.42844,6.15026 1.63471,0.859 5.19312,-6.04915 7.13607,-6.47021 4.41027,-0.95575 7.39248,0.10098 9.28154,-2.40145 -1.1775,0.25461 -2.19686,-0.14468 -3.13374,-0.59079 -0.41474,-4.96766 5.64372,-6.69196 9.14568,-6.69196 3.25675,0 7.45039,-2.63218 8.11958,-3.92596 -1.383,0.40152 -1.95532,-0.2253 -1.95532,-0.2253 -1.92891,-13.15786 8.99033,-9.87163 12.52862,-14.40778 -0.93688,0.35691 -2.63217,0.62458 -5.48741,0.44613 -0.13384,-3.61366 3.12928,-9.33576 7.00425,-11.64401 9.50167,-5.65999 22.64691,-14.17485 18.02817,-20.51885 -3.86911,-4.57345 -11.51827,6.47259 -17.22961,3.66462 -2.15466,-1.05934 -3.9633,-12.15314 -4.13875,-20.34542 l 5.66007,-1.83679 -0.66153,-2.16571 -5.34909,1.09051 -0.90757,-6.49186 -2.03056,0.49391 c 0.63093,6.37234 -3.99615,10.50518 -6.0151,10.56827 l 0.557,2.72906 3.12291,-0.99232 c 0,0 2.29671,14.87219 1.75839,17.23782 -0.44035,1.93515 -1.86527,3.69838 -5.01383,3.4843 -2.50907,-0.1706 -2.96883,-16.20895 -3.66275,-21.76036 l -5.62125,3.65828 c 0,0 -5.58436,0.46158 -7.62883,2.31988 -5.0277,4.56986 -5.19419,14.31677 -4.86283,23.24341 -1.96235,2.69428 -3.24123,6.36561 -8.11958,6.91502 -1.93472,0.21789 -4.05927,-2.14868 -3.52443,-4.90741 z"
       id="path3950"
       inkscape:connector-curvature="0"
       sodipodi:nodetypes="csssssccccccccccccccccccccccccccccccsccsccccscscccccccccssccscscc" />
  </g>
</svg>
