<?xml version="1.0" encoding="UTF-8" standalone="no"?>
<!-- Created with Inkscape (http://www.inkscape.org/) -->

<svg
   xmlns:dc="http://purl.org/dc/elements/1.1/"
   xmlns:cc="http://creativecommons.org/ns#"
   xmlns:rdf="http://www.w3.org/1999/02/22-rdf-syntax-ns#"
   xmlns:svg="http://www.w3.org/2000/svg"
   xmlns="http://www.w3.org/2000/svg"
   xmlns:sodipodi="http://sodipodi.sourceforge.net/DTD/sodipodi-0.dtd"
   xmlns:inkscape="http://www.inkscape.org/namespaces/inkscape"
   width="459.13339"
   height="357.21841"
   id="svg2"
   version="1.1"
   inkscape:version="0.48.3.1 r9886"
   sodipodi:docname="New document 1">
  <defs
     id="defs4" />
  <sodipodi:namedview
     id="base"
     pagecolor="#ffffff"
     bordercolor="#666666"
     borderopacity="1.0"
     inkscape:pageopacity="0.0"
     inkscape:pageshadow="2"
     inkscape:zoom="1"
     inkscape:cx="242.99659"
     inkscape:cy="106.7933"
     inkscape:document-units="px"
     inkscape:current-layer="layer1"
     showgrid="false"
     fit-margin-top="16"
     fit-margin-left="16"
     fit-margin-right="16"
     fit-margin-bottom="16"
     inkscape:window-width="1301"
     inkscape:window-height="744"
     inkscape:window-x="65"
     inkscape:window-y="24"
     inkscape:window-maximized="1" />
  <metadata
     id="metadata7">
    <rdf:RDF>
      <cc:Work
         rdf:about="">
        <dc:format>image/svg+xml</dc:format>
        <dc:type
           rdf:resource="http://purl.org/dc/dcmitype/StillImage" />
        <dc:title></dc:title>
      </cc:Work>
    </rdf:RDF>
  </metadata>
  <g
     inkscape:label="Layer 1"
     inkscape:groupmode="layer"
     id="layer1"
     transform="translate(4.8664247,-711.10469)">
    <path
       style="fill:#000000"
       d="m 224.5,1050.7006 c -6.39105,-3.3693 -7.5,-5.1522 -7.5,-12.0582 0,-5.4311 -0.36216,-6.7333 -2.45455,-8.8257 -1.35,-1.35 -3.34047,-2.4545 -4.42327,-2.4545 -1.0828,0 -3.35326,-1.165 -5.04545,-2.5889 C 202.09091,1022.2609 202,1021.9363 202,1013.7875 l 0,-8.3969 -4.25,-2.7069 c -7.49547,-4.77382 -8.4716,-7.79985 -4.55849,-14.13139 2.10161,-3.40047 2.11621,-3.58993 0.35605,-4.61804 -5.94101,-3.47014 -6.72842,-4.87187 -7.60145,-13.53199 -1.11192,-11.02977 -2.03293,-11.94422 -13.04551,-12.95246 -12.99226,-1.18949 -16.56573,-3.7622 -19.56762,-14.08764 -0.87945,-3.025 -2.21414,-6.38763 -2.96599,-7.47251 C 149.61515,934.8048 149,932.57942 149,930.94439 c 0,-1.83588 -0.99037,-4.00649 -2.58963,-5.67576 -2.16507,-2.25984 -2.40722,-3.04382 -1.47704,-4.78188 1.36123,-2.54347 -1.00495,-9.12457 -3.28065,-9.12457 -0.79716,0 -5.53293,-2.04423 -10.52394,-4.54274 -7.32423,-3.66652 -11.1533,-6.51571 -19.85165,-14.77152 -5.9274,-5.62583 -13.291738,-12.09117 -16.365197,-14.36742 -6.970288,-5.16232 -11.08268,-11.49472 -15.51081,-23.88409 C 75.075056,841.69272 74.903167,841.38066 68.927835,834.78249 64.253813,829.62128 64,829.05147 64,823.71967 c 0,-5.16651 -0.293478,-5.89812 -3.627158,-9.04219 -1.994937,-1.88146 -7.282437,-5.24799 -11.75,-7.48117 -10.505897,-5.25152 -16.83902,-10.09478 -19.582082,-14.9754 -1.682701,-2.99396 -3.816557,-4.72786 -9.081194,-7.37909 -7.791634,-3.92381 -9.407979,-6.0998 -8.662035,-11.66123 0.698239,-5.20576 4.496269,-9.93878 11.999086,-14.95298 3.41186,-2.28018 7.328383,-5.14488 8.703383,-6.36599 1.375,-1.22111 14.805291,-7.29096 29.845091,-13.48856 l 27.345092,-11.26837 57.654907,0.78356 c 51.72833,0.70301 60.42964,0.88332 64.90491,1.34498 0.6875,0.0709 1.26431,0.69145 1.2818,1.37895 0.0175,0.6875 0.67364,2.09772 1.4581,3.13383 1.36884,1.80793 1.5729,1.81425 5.06542,0.15694 8.14227,-3.86376 14.88417,1.19722 18.65108,14.00094 l 2.19427,7.45829 39.66034,0 39.66034,0 3.05497,-5.75 c 1.68023,-3.1625 3.37411,-7.47 3.76416,-9.57221 0.52201,-2.81339 1.3727,-4.07448 3.22305,-4.77798 1.38261,-0.52567 2.61888,-0.83068 2.74725,-0.67779 0.12837,0.15289 0.7297,3.15422 1.33629,6.66963 0.60659,3.5154 1.32912,6.61787 1.60562,6.89437 0.27649,0.2765 2.4403,-0.23724 4.80845,-1.14165 6.1114,-2.33396 6.73886,-2.15369 6.73886,1.93608 0,3.24864 -0.37068,3.72605 -4,5.15168 -2.2,0.86419 -4,1.95905 -4,2.43304 0,0.47398 6.35181,7.5446 14.11513,15.71249 l 14.11514,14.85071 4.22423,-0.47613 c 3.70264,-0.41734 4.49101,-0.13697 6.38486,2.27067 1.48293,1.88524 2.16064,4.15013 2.16064,7.22082 0,4.37839 0.27251,4.75458 12.75,17.60068 7.0125,7.21967 17.46748,18.08317 23.23329,24.14113 5.76581,6.05795 13.13838,13.78717 16.38348,17.17604 l 5.90019,6.16158 -4.38348,2.23505 c -2.41091,1.22928 -6.36069,3.74407 -8.77728,5.58842 -2.41659,1.84435 -4.86823,3.35337 -5.44807,3.35337 -0.57985,0 -3.71614,2.5875 -6.96953,5.75 -3.2534,3.1625 -8.00176,7.78483 -10.55193,10.27185 -3.57821,3.4896 -5.16919,6.12257 -6.96942,11.53397 -1.28301,3.85667 -3.14966,8.09514 -4.14812,9.41882 -1.65779,2.19779 -1.68145,2.61109 -0.27254,4.76135 1.27447,1.94509 1.3418,3.02563 0.38709,6.21217 -0.63566,2.12164 -2.01553,4.91374 -3.06639,6.20468 l -1.91065,2.34716 -2.97945,-2.84237 c -1.75532,-1.67456 -3.73906,-2.67098 -4.82832,-2.42524 -1.52749,0.34462 -1.28503,0.75178 1.39481,2.34237 1.78402,1.05888 3.24652,2.30538 3.25,2.77 0.003,0.46462 -0.93751,3.95212 -2.09108,7.75 -1.77086,5.83016 -2.44219,6.90524 -4.31194,6.90524 -1.30916,0 -3.13653,1.24706 -4.4697,3.05026 -3.18937,4.31385 -6.08541,5.16573 -11.75779,3.4586 -2.58753,-0.77873 -5.07778,-1.18524 -5.53388,-0.90335 -0.45611,0.28189 -0.82929,2.22528 -0.82929,4.31865 0,4.6156 -2.85738,8.59732 -6.72472,9.37078 -1.5322,0.30644 -5.05093,2.79862 -7.81941,5.53818 -4.09414,4.05136 -5.90447,5.11161 -9.69964,5.68073 -2.56632,0.38484 -5.47383,1.31811 -6.46113,2.07393 -1.5654,1.19837 -1.60316,1.50265 -0.2951,2.3779 0.825,0.55203 2.53716,1.01059 3.80479,1.01901 2.1239,0.0141 2.28087,0.38806 2,4.76458 -0.29861,4.65292 -0.41637,4.80693 -5.80479,7.59113 -3.025,1.56303 -10.34314,4.55358 -16.26252,6.64568 -7.61822,2.69254 -11.92832,4.85704 -14.75288,7.40884 -4.76454,4.3045 -8.17061,4.6138 -16.34768,1.4846 -3.84318,-1.4707 -6.39838,-1.8892 -8.33899,-1.3659 l -2.79793,0.7544 3.23742,0.8913 c 8.31545,2.2894 8.16557,18.2862 -0.20855,22.26 -5.4383,2.5806 -14.52887,-0.1989 -14.52887,-4.4424 0,-1.2626 -0.67392,-1.9769 -1.86514,-1.9769 -1.02583,0 -3.09508,-0.9675 -4.59833,-2.1499 -2.25519,-1.774 -2.88819,-1.9051 -3.61954,-0.75 -1.31434,2.0758 -1.11828,3.3678 0.91279,6.015 3.75705,4.8968 3.45151,9.0261 -0.76693,10.3649 -1.09947,0.349 -2.44563,2.2188 -3.10853,4.3178 -0.64308,2.0362 -2.30708,5.3897 -3.69778,7.4522 -2.03292,3.0149 -3.13892,3.7421 -5.64254,3.7099 -1.7127,-0.022 -4.464,-0.7517 -6.114,-1.6215 z m 7.71859,-5.0884 c 0.8407,-0.9625 2.09594,-3.5151 2.78941,-5.6723 0.69347,-2.1573 2.32269,-4.9065 3.62049,-6.1092 l 2.35963,-2.1869 -2.15453,-3.9333 c -2.61832,-4.7802 -2.00997,-8.3258 2.1407,-12.4764 3.62645,-3.6265 5.15548,-3.6151 7.32316,0.054 1.64906,2.7917 1.97504,2.901 7.07885,2.3743 6.29217,-0.6495 7.43352,0.4001 4.49607,4.1345 -2.4206,3.0773 -2.40622,3.1099 1.76245,4.0022 2.63751,0.5645 3.47037,0.2444 5.25,-2.0181 2.32031,-2.9497 2.80232,-8.3321 0.91518,-10.2193 -0.66,-0.66 -3.135,-1.1999 -5.5,-1.1999 -3.88369,0 -4.3,-0.2347 -4.3,-2.4233 0,-1.3328 1.15213,-3.7925 2.56028,-5.466 3.57769,-4.2519 7.98126,-4.8733 15.80526,-2.2305 8.09359,2.7339 9.77145,2.6708 12.71015,-0.4776 3.0764,-3.29591 7.88351,-5.76121 15.45441,-7.92568 4.95942,-1.41787 17.66336,-6.86028 19.4699,-8.34097 0.275,-0.22539 -0.14943,-0.63968 -0.94318,-0.92063 C 320.49093,983.66934 317,979.51066 317,977.36218 c 0,-3.37634 4.18636,-6.66082 10.08665,-7.91363 4.33898,-0.9213 6.31413,-2.06232 9.95205,-5.74916 2.49628,-2.52986 6.09628,-5.10317 8,-5.71848 3.26792,-1.05623 3.49136,-1.41809 3.99928,-6.47711 0.63913,-6.36596 2.83699,-8.6122 7.46202,-7.62631 9.71188,2.07022 10.27166,1.98601 12.55804,-1.8891 1.21575,-2.06055 2.92691,-3.62621 3.96318,-3.62621 1.21095,0 2.22739,-1.22326 3.02526,-3.64084 1.04272,-3.15948 0.97954,-3.76509 -0.47789,-4.58071 -2.69094,-1.50593 -3.78466,-5.59373 -2.52105,-9.42249 1.27322,-3.8579 0.86751,-3.75421 7.63685,-1.95191 4.3329,1.15361 5.26915,1.15941 5.70049,0.0354 0.28385,-0.73972 -0.78098,-2.43636 -2.3663,-3.77032 l -2.8824,-2.42538 2.81305,-2.69507 c 2.89118,-2.76993 4.49336,-5.88882 8.06075,-15.69151 1.95801,-5.38032 4.11033,-7.90513 14.04027,-16.47014 1.34736,-1.16216 3.94881,-3.74966 5.78099,-5.75 1.83219,-2.00035 3.88841,-3.63699 4.5694,-3.63699 0.99723,0 10.23845,-6.30576 12.38063,-8.44793 0.61983,-0.61983 -3.13466,-4.70252 -30.71714,-33.40231 -20.38708,-21.21291 -20.52886,-21.33518 -22.0416,-19.00898 -3.85373,5.92604 -8.71854,9.89012 -20.08841,16.36901 C 337.81009,834.19959 329,843.29484 329,851.6779 c 0,2.21051 0.45001,2.68428 2.54966,2.68428 1.40231,0 3.87731,-0.68656 5.5,-1.52568 2.39231,-1.23711 2.95034,-1.27008 2.95034,-0.17431 0,2.47541 -4.42666,5.51319 -11.20823,7.69159 C 317.75408,863.89935 314,868.35851 314,877.92368 c 0,3.78474 0.36362,4.72083 2,5.14875 2.45929,0.64312 2.52124,1.5179 0.25,3.53048 -2.14814,1.9035 -8.30789,3.97054 -18.43034,6.18471 -9.73356,2.1291 -14.31966,5.04813 -14.31966,9.11439 0,2.7931 0.21164,2.94775 3.75,2.74007 2.0625,-0.12105 3.75,0.13358 3.75,0.56586 0,1.80184 -7.95344,5.04963 -14,5.71691 -6.47367,0.7144 -6.52863,0.74712 -13.56771,8.07732 -3.88725,4.04801 -7.42229,7.36001 -7.85565,7.36001 -0.43336,0 -2.15744,-1.15237 -3.8313,-2.56083 -6.54829,-5.51002 -18.0311,-9.85737 -28.24534,-10.69357 -2.68755,-0.22002 -2.96954,-0.55805 -2.70758,-3.2456 0.49902,-5.11948 2.10297,-8.93974 5.15747,-12.284 2.92857,-3.20636 2.93363,-4.24632 0.009,-1.9342 -3.25417,2.57302 -6.85773,8.41242 -8.00283,12.9682 -1.63143,6.49068 -3.38257,6.16564 -2.69377,-0.5 1.16661,-11.28949 7.96408,-24.8864 14.655,-29.31424 2.16983,-1.43592 6.21246,-2.74557 10.2324,-3.31486 8.18353,-1.15893 9.00833,-1.60542 15.84642,-8.57823 4.61342,-4.70432 6.58251,-5.92824 12.25583,-7.61783 4.71992,-1.40565 7.25098,-2.76341 8.38893,-4.50013 0.89629,-1.36792 1.83852,-2.27823 2.09383,-2.02292 0.96088,0.96088 -1.88916,7.3943 -4.26414,9.62547 -1.35904,1.27675 -2.47098,3.36793 -2.47098,4.64705 0,1.8886 0.53403,2.32569 2.84149,2.32569 5.00329,0 19.52163,-16.83973 22.79118,-26.43536 1.57559,-4.62409 5.36733,-9.15923 5.36733,-6.41963 0,0.80025 -0.4881,1.94309 -1.08466,2.53965 -0.59657,0.59657 -0.93407,2.14907 -0.75,3.45 0.31376,2.21763 0.46792,2.13987 2.46874,-1.24535 2.7161,-4.59543 7.9421,-8.56948 12.11592,-9.21342 3.76147,-0.58032 4.08032,0.45307 1.25,4.05124 -2.1778,2.76862 -2.59924,7.28466 -0.96482,10.33861 2.18613,4.08482 6.96482,0.95004 6.96482,-4.56886 0,-6.2203 12.21128,-17.91674 27.89797,-26.72175 C 360.34171,809.83649 371,801.23623 371,798.91683 c 0,-0.68457 -0.88847,-2.04873 -1.97438,-3.03146 -1.89632,-1.71615 -2.08411,-1.71498 -4.75,0.0294 -1.52659,0.99892 -5.97013,4.60089 -9.87453,8.00438 -8.67582,7.56277 -12.73087,9.1677 -17.80576,7.04728 -1.96691,-0.82182 -4.66954,-2.58758 -6.00587,-3.92391 l -2.42968,-2.42968 -3.76212,5.46244 c -5.4106,7.85594 -9.4144,10.28687 -16.9427,10.28687 -5.443,0 -6.38045,0.31279 -8.93795,2.98225 -5.69109,5.94021 -15.99268,7.55032 -22.22251,3.47331 -2.11797,-1.38607 -2.38405,-1.16733 -6.7044,5.51124 -6.15415,9.51334 -11.15805,13.0332 -18.52825,13.0332 -18.72433,0 -26.3381,-19.85385 -16.04719,-41.84502 4.17203,-8.91542 8.97168,-14.47096 15.17096,-17.56019 10.16357,-5.06472 16.87439,-2.0648 18.28241,8.17273 1.00948,7.33981 -2.3628,14.2745 -11.5481,23.74735 -7.52562,7.7612 -7.99229,9.2997 -3.9347,12.97177 3.4368,3.11025 9.47947,-0.004 15.12241,-7.79393 C 270.85621,819.2606 271,818.54494 271,808.65955 c 0,-18.26863 5.00728,-32.21656 14.05604,-39.15356 3.83833,-2.94256 4.89407,-3.28543 8.56625,-2.7821 3.18299,0.43627 4.32663,0.21379 4.76435,-0.92688 0.31678,-0.82553 2.49688,-2.35429 4.84466,-3.39726 l 4.2687,-1.8963 -35.27144,-0.0706 -35.27144,-0.0706 -0.88742,-2.25 c -0.48809,-1.2375 -1.94094,-5.59352 -3.22857,-9.68004 -1.69506,-5.37962 -3.11396,-7.99656 -5.14161,-9.48294 l -2.80048,-2.0529 -5.52607,2.98294 c -6.09629,3.29074 -5.79219,3.39599 -9.48489,-3.28263 l -1.61191,-2.91531 -59.42108,-0.71033 -59.421073,-0.71034 -10.467008,4.42687 c -5.756855,2.43477 -17.292103,7.24032 -25.633884,10.67899 -11.484797,4.73429 -17.43012,7.87861 -24.489423,12.95177 -15.150143,10.88764 -16.265443,15.30238 -5.291723,20.94646 4.493197,2.31098 7.352646,4.57022 8.913205,7.04231 3.506337,5.55439 8.514022,9.44298 19.286492,14.97642 5.403755,2.77572 11.353678,6.62395 13.222052,8.55162 2.964097,3.05818 3.454306,4.30283 3.846347,9.76599 0.416422,5.80292 0.794649,6.63951 5.168312,11.43163 4.468251,4.89576 6.289437,8.4789 12.11172,23.82949 3.222561,8.49636 6.435674,12.9981 12.29871,17.23113 2.805653,2.02564 9.881313,8.22892 15.723693,13.78506 10.85421,10.32244 18.96604,15.5457 29.41035,18.93753 4.90335,1.59238 5.06419,1.76917 6.25,6.86964 0.66943,2.87936 1.23145,6.12202 1.24894,7.20592 0.0175,1.0839 0.6925,2.84423 1.5,3.91185 0.80751,1.06762 1.4682,3.02319 1.4682,4.34571 0,1.32252 0.662,3.59901 1.47111,5.05887 0.80912,1.45986 1.95621,4.58441 2.54909,6.94345 0.59289,2.35905 2.35474,5.71811 3.91521,7.46459 2.64617,2.96157 3.41724,3.22051 11.44982,3.8451 13.2014,1.0265 16.30421,3.95516 17.5046,16.52211 0.55906,5.85284 1.17737,8.00342 2.53321,8.81087 7.03456,4.18934 8.39034,7.99311 4.57696,12.84104 -2.82254,3.58828 -2.51195,4.99662 1.58898,7.20511 6.16833,3.32187 7.41102,5.76967 7.41102,14.59787 0,8.5888 0.0114,8.6067 6.98585,10.9242 5.70021,1.8941 8.01037,6.0068 8.0126,14.2647 0.001,5.4299 0.19028,5.8798 3.25155,7.7462 3.99319,2.4347 5.01999,2.47 6.96859,0.2391 z M 225,1014.1938 c -0.275,-5.3176 -0.78174,-9.9494 -1.1261,-10.2928 -0.34435,-0.3434 -2.22833,-0.8843 -4.18661,-1.2021 l -3.56051,-0.5778 -0.38868,4.3705 -0.38869,4.3706 -0.1747,-4.2375 c -0.15563,-3.7746 -0.60947,-4.5119 -4.15484,-6.74998 -2.18907,-1.38189 -4.32657,-2.5154 -4.75,-2.51889 -0.42343,-0.003 -2.03551,-4.39099 -3.58241,-9.75 -3.1397,-10.87704 -8.43997,-24.46684 -15.10667,-38.73317 -5.74676,-12.29773 -3.59014,-12.97461 2.85825,-0.89708 1.84387,3.45349 4.02247,5.83973 6.71128,7.35093 2.18963,1.23064 4.2329,1.98578 4.5406,1.67809 0.30769,-0.3077 -0.17189,-2.38722 -1.06574,-4.62117 -2.01046,-5.02463 -2.03931,-6.1174 -0.14228,-5.38944 0.81559,0.31297 2.45044,3.22262 3.63299,6.46588 2.34888,6.44202 3.03236,6.84687 14.13411,8.37222 l 4.75,0.65264 0.0153,-4.31128 c 0.0148,-4.16324 1.31816,-7.81113 2.40321,-6.72609 0.28999,0.29 0.75132,2.70132 1.02517,5.35851 0.27385,2.65718 0.70666,5.03999 0.96181,5.29514 0.25514,0.25515 3.63658,-0.0712 7.51431,-0.7253 6.99241,-1.17943 7.05878,-1.22032 8.06869,-4.97082 1.0627,-3.94656 4.48917,-9.04271 6.08,-9.04271 0.50784,0 0.0684,2.25 -0.9765,5 -1.64846,4.3384 -1.69662,5 -0.36396,5 3.15453,0 8.06037,-4.13259 10.37959,-8.74357 2.71191,-5.39172 4.81014,-8.25643 6.04736,-8.25643 1.50362,0 0.94489,1.52966 -5.52273,15.11977 -6.62563,13.92213 -15.52244,39.32828 -15.78209,45.06805 -0.13687,3.0255 -0.18589,3.0742 -0.56642,0.5622 -0.49095,-3.24083 -0.28733,-3.19282 -4.67241,-1.1017 -3.45434,1.6472 -3.45692,1.6537 -4.1069,10.25 -0.89208,11.7983 -1.5895,12.6315 -1.13129,1.3517 0.39235,-9.6586 0.32025,-9.8107 -4.08936,-8.6286 -2.07831,0.5572 -2.23386,1.2252 -2.5,10.7364 L 225.5,1023.8622 z m -1,-20.25216 0,-6.42055 -3.25,-0.65411 c -1.7875,-0.35976 -4.08703,-0.89156 -5.11006,-1.18178 -1.72334,-0.48887 -1.80866,-0.0607 -1.16078,5.82466 0.76694,6.96692 2.19648,8.85234 6.71197,8.85234 2.78684,0 2.80887,-0.05 2.80887,-6.42056 z m 9.08727,2.92054 c 0.38637,-1.65 0.9465,-4.6875 1.24474,-6.75 0.4856,-3.35825 0.31377,-3.74857 -1.64488,-3.73635 C 226.6393,986.41359 226,987.1465 226,994.04217 l 0,6.44673 3.19239,-0.3134 c 2.617,-0.25684 3.319,-0.85403 3.89488,-3.31332 z m 7.74618,-0.84419 c 1.7711,-1.90422 5.81326,-14.34244 4.9436,-15.21209 -0.18427,-0.18427 -2.08842,0.65301 -4.23145,1.86062 -3.51241,1.97927 -4.02063,2.78698 -5.1568,8.19566 -0.69322,3.3 -1.28928,6.52037 -1.3246,7.15638 -0.0953,1.71676 3.45772,0.4847 5.76925,-2.00057 z m -28.30497,-3.31444 c -1.04661,-6.97931 -2.12589,-9.08182 -5.57845,-10.86721 -1.72474,-0.8919 -3.32635,-1.43118 -3.55913,-1.19839 -0.44212,0.44212 2.12021,13.61644 2.74881,14.13313 1.29904,1.06775 4.57908,2.53516 5.72383,2.56069 1.05805,0.0236 1.20703,-1.01334 0.66494,-4.62822 z m 11.31479,-16.77407 c -0.20644,-4.08799 -0.68134,-7.7387 -1.05533,-8.1127 -0.56799,-0.56798 -11.75732,-3.30599 -13.97423,-3.41947 -0.56127,-0.0287 1.23784,7.66622 3.77628,16.15151 0.52781,1.76435 2.64286,2.44909 8.26931,2.67718 l 3.3593,0.13618 z m 13.8058,-0.5673 c 3.32055,-11.30496 3.44704,-10.98082 -3.70304,-9.48874 -3.32968,0.69484 -6.35997,1.56935 -6.73397,1.94334 -0.37399,0.374 -0.85024,4.05143 -1.05832,8.17208 l -0.37834,7.49208 4.83537,-0.30938 4.83536,-0.30938 z m 5.92257,4.11943 c 2.44052,-1.48824 3.72469,-3.66577 6.25,-10.59795 1.7481,-4.79867 3.17836,-9.12325 3.17836,-9.61017 0,-0.48692 -1.97951,0.0764 -4.3989,1.25183 -4.64126,2.2549 -4.55052,2.06771 -9.2524,19.08686 -0.61758,2.2354 0.39436,2.20411 4.22294,-0.13057 z m -36.53972,-7.8677 c -2.52814,-8.11014 -3.04308,-8.94802 -7.05943,-11.48673 -2.3828,-1.50615 -4.48832,-2.5825 -4.67895,-2.39188 -0.39182,0.39183 5.12899,15.67934 6.76889,18.74354 1.01177,1.89051 4.08977,3.68093 6.56706,3.81995 0.70846,0.0398 0.11294,-3.19766 -1.59757,-8.68488 z M 216.5,948.95772 c -2.2,-0.68791 -3.8875,-1.77833 -3.75,-2.42314 0.14551,-0.6824 -0.95024,-1.1724 -2.62178,-1.1724 -4.67609,0 -21.32479,-4.585 -25.40406,-6.9962 -6.49413,-3.83859 -7.56851,-8.86262 -2.85994,-13.37371 C 184.63656,922.3362 194,918.66319 194,920.23175 c 0,0.42566 -2.20025,1.7683 -4.88944,2.98367 -8.1587,3.68727 -7.37543,9.64678 1.63998,12.47783 6.88758,2.16286 10.50221,2.8691 10.0446,1.96255 -4.96446,-9.83484 -5.68991,-19.65378 -2.04155,-27.63258 2.36423,-5.17045 3.59905,-5.48104 6.35315,-1.59799 3.39113,4.78121 3.21711,6.31357 -1.07785,9.49117 -5.03561,3.72557 -5.18976,5.07269 -0.27889,2.43708 3.70418,-1.98799 3.76067,-1.98882 4.62342,-0.0678 1.33773,2.97861 -0.19211,10.53024 -2.95935,14.60799 -1.36529,2.01187 -1.90448,3.48262 -1.19821,3.26833 2.41176,-0.73173 5.89522,-9.35569 5.9366,-14.69714 0.046,-5.93405 1.35082,-7.56397 2.24398,-2.803 0.33866,1.80519 2.26435,6.63875 4.27931,10.74125 2.01497,4.10249 3.58723,7.79658 3.49392,8.20908 -0.0933,0.4125 1.29283,0.72148 3.08033,0.68661 2.73395,-0.0533 2.92392,-0.19545 1.19638,-0.89513 -2.44804,-0.99149 -8.06073,-12.67245 -9.02928,-18.79148 -0.92744,-5.85928 1.32827,-5.67897 4.53319,0.36236 3.5035,6.60418 7.52199,11.36338 12.7081,15.05058 l 4.51967,3.21336 -3.83903,0.43165 c -2.11147,0.23741 -0.46403,0.23907 3.66097,0.004 19.4828,-1.1117 32.18178,-8.03334 26.41982,-14.40024 -0.95749,-1.05801 -1.40646,-2.25809 -0.99771,-2.66684 1.38639,-1.3864 6.57789,5.61411 6.57789,8.87001 0,8.28257 -13.0549,13.01717 -39.34223,14.26818 -10.07914,0.47934 -14.61393,1.61693 -6.44688,1.61693 2.81936,0 5.01675,0.56936 5.78911,1.5 1.07872,1.29978 0.59451,1.48974 -3.62756,1.42315 -2.67984,-0.0423 -6.67244,-0.63969 -8.87244,-1.32761 z m 14.16667,-0.26221 c -1.61827,-1.61826 -0.33213,-2.32761 4.08333,-2.25211 l 4.75,0.0812 -3,1.37367 c -3.40207,1.55779 -4.8719,1.75866 -5.83333,0.79722 z m 4.85606,-12.48596 C 228.92001,931.00376 221,920.32471 221,916.62765 c 0,-3.38046 16.53525,-0.072 25.29392,5.06089 6.08374,3.56531 7.0572,4.98845 6.27269,9.17025 -0.7914,4.21855 -3.57718,6.27053 -9.63157,7.09453 -3.69581,0.503 -4.93129,0.21235 -7.41231,-1.74377 z M 208.51,912.30262 c -0.95608,-1.89224 -2.83342,-4.61247 -4.17187,-6.04496 l -2.43355,-2.60452 3.72498,-3.27057 c 3.52321,-3.09342 9.04552,-6.02039 11.35865,-6.02039 0.57884,0 0.16745,1.73472 -0.9142,3.85493 -1.08165,2.1202 -2.27268,6.16199 -2.64673,8.98174 -0.37405,2.81975 -1.24234,5.89573 -1.92953,6.83552 -1.12509,1.53865 -1.42242,1.36631 -2.98775,-1.73175 z m -46.62848,-9.19044 c -0.24925,-2.62958 0.38588,-4.27908 2.71214,-7.04367 2.45251,-2.91465 3.18735,-7.10561 1.43571,-8.18818 -1.36947,-0.84638 -6.9383,2.14484 -10.77937,5.78997 -3.94242,3.74131 -4.22261,2.02724 -0.66184,-4.04877 1.42349,-2.429 2.36089,-4.64363 2.08311,-4.92141 -0.89278,-0.89279 -9.2321,3.30476 -17.06046,8.58729 -8.16643,5.51065 -9.27633,5.17477 -5.66742,-1.71507 2.16659,-4.13626 7.76016,-10.19337 19.29835,-20.89762 7.21178,-6.69053 10.83015,-11.57399 9.53518,-12.86896 -0.30138,-0.30138 -4.31198,1.89513 -8.91244,4.88112 -14.19639,9.21437 -21.70572,12.35923 -23.31067,9.76237 -0.31032,-0.50211 3.37562,-3.95439 8.19098,-7.67173 4.81537,-3.71733 11.68021,-9.10632 15.25521,-11.97553 5.65008,-4.53463 15.5056,-11.27872 39.39049,-26.95477 8.36463,-5.48984 10.10789,-9.65287 8.73659,-20.86362 -1.37885,-11.27248 -2.54933,-13.62142 -6.7876,-13.62142 -6.01133,0 -3.20753,-4.58138 5.46993,-8.93778 3.40707,-1.71047 23.9643,-10.06222 24.76744,-10.06222 0.10444,0 0.44278,0.96708 0.75188,2.14906 0.3957,1.51315 -0.15059,2.70958 -1.84619,4.04333 -3.49238,2.74711 -3.8419,6.99736 -1.53216,18.63112 2.22665,11.21516 2.59356,18.73193 1.09153,22.36139 -1.31668,3.18156 -6.49704,8.60074 -20.30929,21.24551 -15.48716,14.17813 -17.17572,17.16924 -16.83394,29.81959 0.13997,5.18042 2.91125,7.81738 7.44276,7.08202 3.23039,-0.52422 3.49408,-0.35736 4.14925,2.6256 0.3848,1.75196 0.54431,3.33685 0.35447,3.52196 -0.51354,0.50077 -36.14336,20.52042 -36.52105,20.52042 -0.17826,0 -0.37743,-0.5625 -0.44259,-1.25 z m 42.67582,-27.29602 c -0.55463,-2.95645 -0.28217,-3.85694 1.63871,-5.41601 2.0986,-1.70331 2.29945,-2.65733 2.25345,-10.70397 -0.0278,-4.8587 -0.37694,-10.78615 -0.77591,-13.17211 -0.7229,-4.32314 -0.70547,-4.35593 5.0505,-9.49861 3.17675,-2.83828 7.43616,-6.83893 9.46536,-8.89035 3.96853,-4.01198 3.96993,-4.01125 5.21601,2.72707 0.30512,1.65 1.01712,7.69333 1.58221,13.42961 1.03864,10.54322 2.67665,14.52017 5.52959,13.42539 0.73115,-0.28056 1.81819,0.40328 2.41566,1.51966 0.95822,1.79044 0.58405,2.31888 -3.17331,4.48179 -7.2392,4.16721 -27.97324,15.64355 -28.26284,15.64355 -0.1508,0 -0.57355,-1.59571 -0.93943,-3.54602 z m -44.04585,-42.20398 c -0.83195,-9.78164 -3.0358,-17.85348 -5.08971,-18.64164 -0.87195,-0.3346 -2.44855,-0.60836 -3.50357,-0.60836 -2.44253,0 -2.54338,-3.13826 -0.16821,-5.23453 2.37017,-2.09186 29.54756,-16.76547 31.05177,-16.76547 0.65903,0 1.19823,1.125 1.19823,2.5 0,1.375 -0.43563,2.5 -0.96806,2.5 -2.49064,0 -3.5416,5.00885 -2.87708,13.71206 0.36904,4.83337 0.70462,11.03794 0.74572,13.78794 l 0.0747,5 -9.05426,5.75 c -4.97984,3.1625 -9.43589,5.75 -9.90233,5.75 -0.46644,0 -1.14469,-3.4875 -1.50722,-7.75 z M 113,773.54692 c 0,-0.51331 0.675,-2.84644 1.5,-5.18474 0.825,-2.3383 1.5,-4.82147 1.5,-5.51816 0,-0.69669 -2.28194,-3.00262 -5.07098,-5.12428 l -5.07099,-3.85756 6.74261,-0.5 6.74261,-0.5 1.91171,-5.75 c 1.05144,-3.1625 2.22081,-5.75 2.59861,-5.75 0.3778,0 1.5778,2.5875 2.66667,5.75 l 1.97976,5.75 6.5,0.30508 6.5,0.30508 -4.95489,4.30003 -4.95489,4.30003 1.63658,5.87987 c 0.90011,3.23393 1.46346,6.05298 1.25189,6.26456 -0.21158,0.21158 -2.64409,-1.27387 -5.40558,-3.30099 l -5.02089,-3.68567 -4.27611,2.89583 C 113.69733,774.24261 113,774.59466 113,773.54692 z m 153.05035,133.80082 c 1.89004,-0.54206 4.90192,-0.98556 6.69305,-0.98556 3.52352,0 4.12782,-1.03206 1.7566,-3 -2.34175,-1.94348 -1.8454,-6.77539 0.96339,-9.37849 2.86605,-2.65617 7.29417,-4.10961 17.03661,-5.59195 3.85,-0.58578 8.33611,-1.33949 9.96914,-1.6749 l 2.96914,-0.60983 -4.4603,-1.64762 c -2.45316,-0.9062 -4.59486,-2.34635 -4.75933,-3.20035 -0.16446,-0.85399 1.7817,-4.21765 4.32481,-7.47479 7.04684,-9.0254 7.69786,-10.7452 7.90281,-20.87699 0.10205,-5.04422 0.74314,-10.07819 1.44938,-11.38073 0.69651,-1.2846 1.02918,-2.57285 0.73926,-2.86278 -0.67803,-0.67802 -4.62624,5.76579 -4.63117,7.55845 -0.008,2.73619 -6.5994,13.63069 -11.48495,18.98136 -8.90176,9.74923 -20.72262,15.75367 -26.14774,13.28182 -2.4168,-1.10117 -2.58274,-1.5658 -2.11039,-5.90917 l 0.51265,-4.71403 -2.13665,2.9471 c -3.84689,5.30602 -6.69236,7.38989 -14.46896,10.59627 -12.26421,5.05668 -16.40348,10.22842 -11.16939,13.95542 3.33264,2.37306 4.36321,2.47545 5.92877,0.58907 0.64459,-0.77668 3.51219,-1.96206 6.37245,-2.63419 6.44565,-1.51465 10.39183,-3.42542 13.95047,-6.75492 l 2.75,-2.57293 0,5.23675 c 0,2.88021 -0.65599,6.50529 -1.45775,8.05574 -1.56724,3.0307 -10.14884,9.08169 -12.8798,9.08169 -1.93152,0 -1.96576,0.14746 -0.7438,3.20295 0.50525,1.26338 1.19547,3.16102 1.53382,4.21697 0.55491,1.73186 0.98477,1.55902 4.3883,-1.76444 2.07522,-2.0264 5.31953,-4.12786 7.20958,-4.66992 z m -14.61026,-92.91936 c 3.85421,-4.25886 6.09665,-18.10751 3.57306,-22.0662 -2.41987,-3.79599 -7.8047,4.58021 -8.7342,13.5862 -0.95597,9.26248 1.21898,12.83603 5.16114,8.48 z m 44.41063,-1.13635 c 3.51376,-3.77158 4.57463,-10.0909 3.35582,-19.98988 -1.22609,-9.95807 -3.53985,-15.93997 -6.16549,-15.93997 -5.18882,0 -8.08811,11.79919 -6.19268,25.20219 1.67705,11.8588 4.64905,15.40038 9.00235,10.72766 z m 27.56039,-13.00658 c 3.03771,-3.61011 3.09849,-4.77267 1.0417,-19.92327 -2.30861,-17.00547 -2.04663,-16.24812 -5.36812,-15.5186 -2.4493,0.53795 -2.92981,0.27181 -3.4821,-1.92866 -0.48123,-1.91739 -1.2872,-2.55274 -3.23827,-2.55274 -2.21123,0 -2.50516,0.33465 -1.97621,2.25 0.34175,1.2375 1.50986,9.73355 2.5958,18.8801 1.08593,9.14656 2.42266,17.80906 2.97051,19.25 1.34148,3.52838 4.25347,3.34998 7.45669,-0.45683 z m 33.68341,-6.97098 6.03748,-3.04772 -8.98257,-9.70228 c -4.94041,-5.33626 -11.09046,-11.72729 -13.66677,-14.20229 l -4.6842,-4.5 0.63601,4.5 c 2.12039,15.0025 4.0926,24.33756 5.7003,26.98121 2.45269,4.03313 6.93002,4.02447 14.95975,-0.0289 z"
       id="path3064"
       inkscape:connector-curvature="0"
       sodipodi:nodetypes="csssssccsssssssssssssssssssssssscsccssscccssssscssssscsssssscsssssssssscssscsssssssssssssssssccssssccscssccccccccccscccssssssccsssssssssssscscsssssssssssssssssssssssssssscsssssssssssssssssssscsssssscssssssssssssssssscccssscsscccsssssssssssssssssssssssssssccccscscccsscsssscsssscscscsssssssssscsscscsscsssssssssccssssscssscssssccsscssscscccssssssssscscssssssssssssssssssssccsssscscssscsscscscsccsssssssscssssssssssssssssssssssssssssssssscsssssssssscsssscsssssssscssccsssscccssscccccscscsssssssscsssssccssscsssssscsssssssssssssssssssssssssccsscsscc" />
  </g>
</svg>
